M48
; DRILL file {KiCad 9.0.5} date 2025-12-25T11:55:56+0700
; FORMAT={-:-/ absolute / metric / decimal}
; #@! TF.CreationDate,2025-12-25T11:55:56+07:00
; #@! TF.GenerationSoftware,Kicad,Pcbnew,9.0.5
; #@! TF.FileFunction,Plated,1,2,PTH
FMAT,2
METRIC
; #@! TA.AperFunction,Plated,PTH,ViaDrill
T1C0.300
; #@! TA.AperFunction,Plated,PTH,ViaDrill
T2C0.400
; #@! TA.AperFunction,Plated,PTH,ViaDrill
T3C0.500
; #@! TA.AperFunction,Plated,PTH,ViaDrill
T4C0.600
; #@! TA.AperFunction,Plated,PTH,ComponentDrill
T5C1.000
%
G90
G05
T1
X109.896Y-76.25
X110.5Y-78.54
X112.5Y-78.0
X113.604Y-77.604
X114.0Y-72.0
X114.5Y-71.0
X116.0Y-79.0
X116.0Y-82.5
X116.25Y-81.5
X117.5Y-70.5
X118.111Y-69.996
X118.876Y-70.5
X119.675Y-82.0
X120.675Y-79.0
X121.5Y-58.0
X122.5Y-72.65
X124.0Y-57.399
X124.0Y-76.0
X137.0Y-72.5
X137.0Y-73.5
X137.5Y-76.5
X140.5Y-84.0
X146.0Y-77.5
T2
X109.0Y-110.0
X119.0Y-80.5
X171.5Y-52.5
T3
X126.5Y-72.95
X130.5Y-73.5
X130.7Y-71.946
X134.5Y-69.5
X143.163Y-77.214
X143.428Y-73.9
T4
X103.0Y-82.0
X106.5Y-85.0
X107.0Y-73.0
X107.5Y-62.5
X112.968Y-67.324
X114.5Y-61.5
X115.575Y-70.294
X118.0Y-55.0
X118.05Y-83.3
X122.0Y-90.0
X125.0Y-87.0
X125.0Y-90.0
X125.5Y-60.648
X130.5Y-75.5
X134.5Y-83.0
X136.5Y-71.6
X136.7Y-78.544
X140.5Y-76.0
X141.5Y-73.0
X144.0Y-84.0
T5
X93.0Y-70.92
X93.0Y-73.46
X93.0Y-76.0
X93.0Y-78.54
X110.96Y-101.0
X113.5Y-101.0
X116.04Y-101.0
X118.58Y-101.0
X121.38Y-37.5
X121.42Y-112.5
X123.92Y-37.5
X123.96Y-112.5
X124.38Y-96.5
X126.46Y-37.5
X126.5Y-112.5
X126.92Y-96.5
X128.596Y-66.124
X128.596Y-68.664
X128.596Y-71.204
X128.596Y-73.744
X128.596Y-76.284
X128.596Y-78.824
X128.596Y-81.364
X128.596Y-83.904
X129.0Y-37.5
X129.04Y-112.5
X129.46Y-96.5
X132.0Y-96.5
X136.847Y-53.247
X139.387Y-53.247
X174.99Y-90.5
X174.99Y-93.04
X174.99Y-95.58
X175.46Y-54.5
X175.46Y-57.04
X175.46Y-59.58
X177.53Y-90.5
X177.53Y-93.04
X177.53Y-95.58
X178.0Y-54.5
X178.0Y-57.04
X178.0Y-59.58
M30
