%TF.GenerationSoftware,KiCad,Pcbnew,9.0.5*%
%TF.CreationDate,2025-12-24T21:09:35+07:00*%
%TF.ProjectId,katPCB_2Layers,6b617450-4342-45f3-924c-61796572732e,rev?*%
%TF.SameCoordinates,Original*%
%TF.FileFunction,Profile,NP*%
%FSLAX46Y46*%
G04 Gerber Fmt 4.6, Leading zero omitted, Abs format (unit mm)*
G04 Created by KiCad (PCBNEW 9.0.5) date 2025-12-24 21:09:35*
%MOMM*%
%LPD*%
G01*
G04 APERTURE LIST*
%TA.AperFunction,Profile*%
%ADD10C,0.050000*%
%TD*%
G04 APERTURE END LIST*
D10*
X152538673Y-66007895D02*
X164538673Y-66007895D01*
X164538673Y-69807895D01*
X152538673Y-69807895D01*
X152538673Y-66007895D01*
X169065912Y-55005531D02*
G75*
G02*
X165892000Y-55005531I-1586956J0D01*
G01*
X165892000Y-55005531D02*
G75*
G02*
X169065912Y-55005531I1586956J0D01*
G01*
X152564325Y-79885161D02*
X164564325Y-79885161D01*
X164564325Y-83685161D01*
X152564325Y-83685161D01*
X152564325Y-79885161D01*
X133500000Y-100000000D02*
X133500000Y-120000000D01*
X183500000Y-50000000D02*
X133500000Y-50000000D01*
X151087215Y-94991055D02*
G75*
G02*
X147913303Y-94991055I-1586956J0D01*
G01*
X147913303Y-94991055D02*
G75*
G02*
X151087215Y-94991055I1586956J0D01*
G01*
X110086956Y-93413044D02*
G75*
G02*
X106913044Y-93413044I-1586956J0D01*
G01*
X106913044Y-93413044D02*
G75*
G02*
X110086956Y-93413044I1586956J0D01*
G01*
X110095111Y-56202581D02*
G75*
G02*
X106921199Y-56202581I-1586956J0D01*
G01*
X106921199Y-56202581D02*
G75*
G02*
X110095111Y-56202581I1586956J0D01*
G01*
X188000000Y-120000000D02*
X183500000Y-120000000D01*
X169108000Y-94994469D02*
G75*
G02*
X165934088Y-94994469I-1586956J0D01*
G01*
X165934088Y-94994469D02*
G75*
G02*
X169108000Y-94994469I1586956J0D01*
G01*
X183500000Y-30000000D02*
X183500000Y-50000000D01*
X151086956Y-54913044D02*
G75*
G02*
X147913044Y-54913044I-1586956J0D01*
G01*
X147913044Y-54913044D02*
G75*
G02*
X151086956Y-54913044I1586956J0D01*
G01*
X188000000Y-30000000D02*
X183500000Y-30000000D01*
X183500000Y-120000000D02*
X183500000Y-100000000D01*
X133500000Y-120000000D02*
G75*
G02*
X133500000Y-30000000I0J45000000D01*
G01*
X188000000Y-120000000D02*
X188000000Y-30000000D01*
X183500000Y-100000000D02*
X133500000Y-100000000D01*
X133500000Y-50000000D02*
X133500000Y-30000000D01*
M02*
