%TF.GenerationSoftware,KiCad,Pcbnew,9.0.5*%
%TF.CreationDate,2025-12-24T21:09:35+07:00*%
%TF.ProjectId,katPCB_2Layers,6b617450-4342-45f3-924c-61796572732e,rev?*%
%TF.SameCoordinates,Original*%
%TF.FileFunction,Soldermask,Top*%
%TF.FilePolarity,Negative*%
%FSLAX46Y46*%
G04 Gerber Fmt 4.6, Leading zero omitted, Abs format (unit mm)*
G04 Created by KiCad (PCBNEW 9.0.5) date 2025-12-24 21:09:35*
%MOMM*%
%LPD*%
G01*
G04 APERTURE LIST*
G04 Aperture macros list*
%AMRoundRect*
0 Rectangle with rounded corners*
0 $1 Rounding radius*
0 $2 $3 $4 $5 $6 $7 $8 $9 X,Y pos of 4 corners*
0 Add a 4 corners polygon primitive as box body*
4,1,4,$2,$3,$4,$5,$6,$7,$8,$9,$2,$3,0*
0 Add four circle primitives for the rounded corners*
1,1,$1+$1,$2,$3*
1,1,$1+$1,$4,$5*
1,1,$1+$1,$6,$7*
1,1,$1+$1,$8,$9*
0 Add four rect primitives between the rounded corners*
20,1,$1+$1,$2,$3,$4,$5,0*
20,1,$1+$1,$4,$5,$6,$7,0*
20,1,$1+$1,$6,$7,$8,$9,0*
20,1,$1+$1,$8,$9,$2,$3,0*%
G04 Aperture macros list end*
%ADD10RoundRect,0.250000X-0.337500X-0.475000X0.337500X-0.475000X0.337500X0.475000X-0.337500X0.475000X0*%
%ADD11RoundRect,0.100000X0.637500X0.100000X-0.637500X0.100000X-0.637500X-0.100000X0.637500X-0.100000X0*%
%ADD12R,1.700000X1.700000*%
%ADD13C,1.700000*%
%ADD14RoundRect,0.250000X-0.475000X0.337500X-0.475000X-0.337500X0.475000X-0.337500X0.475000X0.337500X0*%
%ADD15RoundRect,0.250000X0.337500X0.475000X-0.337500X0.475000X-0.337500X-0.475000X0.337500X-0.475000X0*%
%ADD16RoundRect,0.250000X-1.075000X0.400000X-1.075000X-0.400000X1.075000X-0.400000X1.075000X0.400000X0*%
%ADD17RoundRect,0.250000X0.475000X-0.337500X0.475000X0.337500X-0.475000X0.337500X-0.475000X-0.337500X0*%
%ADD18R,1.500000X1.500000*%
%ADD19RoundRect,0.250000X-0.450000X-0.350000X0.450000X-0.350000X0.450000X0.350000X-0.450000X0.350000X0*%
%ADD20RoundRect,0.250000X-0.262500X-0.450000X0.262500X-0.450000X0.262500X0.450000X-0.262500X0.450000X0*%
%ADD21RoundRect,0.075000X-0.075000X0.700000X-0.075000X-0.700000X0.075000X-0.700000X0.075000X0.700000X0*%
%ADD22RoundRect,0.075000X-0.700000X0.075000X-0.700000X-0.075000X0.700000X-0.075000X0.700000X0.075000X0*%
%ADD23RoundRect,0.085050X0.671950X0.481950X-0.671950X0.481950X-0.671950X-0.481950X0.671950X-0.481950X0*%
%ADD24RoundRect,0.113550X0.643450X1.608450X-0.643450X1.608450X-0.643450X-1.608450X0.643450X-1.608450X0*%
%ADD25RoundRect,0.250000X0.450000X-0.262500X0.450000X0.262500X-0.450000X0.262500X-0.450000X-0.262500X0*%
%ADD26RoundRect,0.250000X0.325000X0.450000X-0.325000X0.450000X-0.325000X-0.450000X0.325000X-0.450000X0*%
%ADD27RoundRect,0.250000X0.262500X0.450000X-0.262500X0.450000X-0.262500X-0.450000X0.262500X-0.450000X0*%
%ADD28RoundRect,0.250000X-0.350000X0.275000X-0.350000X-0.275000X0.350000X-0.275000X0.350000X0.275000X0*%
%ADD29RoundRect,0.250000X0.450000X-0.325000X0.450000X0.325000X-0.450000X0.325000X-0.450000X-0.325000X0*%
G04 APERTURE END LIST*
D10*
%TO.C,C14*%
X121925000Y-67000000D03*
X124000000Y-67000000D03*
%TD*%
D11*
%TO.C,U4*%
X144500000Y-77150000D03*
X144500000Y-76500000D03*
X144500000Y-75850000D03*
X144500000Y-75200000D03*
X144500000Y-74550000D03*
X144500000Y-73900000D03*
X144500000Y-73250000D03*
X144500000Y-72600000D03*
X138775000Y-72600000D03*
X138775000Y-73250000D03*
X138775000Y-73900000D03*
X138775000Y-74550000D03*
X138775000Y-75200000D03*
X138775000Y-75850000D03*
X138775000Y-76500000D03*
X138775000Y-77150000D03*
%TD*%
D12*
%TO.C,J10*%
X178000000Y-59580000D03*
D13*
X175460000Y-59580000D03*
X178000000Y-57040000D03*
X175460000Y-57040000D03*
X178000000Y-54500000D03*
X175460000Y-54500000D03*
%TD*%
D14*
%TO.C,C2*%
X122000000Y-85425000D03*
X122000000Y-87500000D03*
%TD*%
%TO.C,C15*%
X141537500Y-60710000D03*
X141537500Y-62785000D03*
%TD*%
D15*
%TO.C,C10*%
X111537500Y-61350000D03*
X109462500Y-61350000D03*
%TD*%
D12*
%TO.C,J2*%
X93000000Y-78540000D03*
D13*
X93000000Y-76000000D03*
X93000000Y-73460000D03*
X93000000Y-70920000D03*
%TD*%
D14*
%TO.C,C20*%
X105037500Y-70462500D03*
X105037500Y-72537500D03*
%TD*%
D15*
%TO.C,C7*%
X139037500Y-56247500D03*
X136962500Y-56247500D03*
%TD*%
D14*
%TO.C,C16*%
X100017500Y-70425000D03*
X100017500Y-72500000D03*
%TD*%
%TO.C,C19*%
X144037500Y-60710000D03*
X144037500Y-62785000D03*
%TD*%
D16*
%TO.C,R4*%
X143637500Y-79325000D03*
X143637500Y-82425000D03*
%TD*%
D17*
%TO.C,C12*%
X119018750Y-85943750D03*
X119018750Y-83868750D03*
%TD*%
D18*
%TO.C,SW1*%
X118000000Y-64500000D03*
X118000000Y-56700000D03*
%TD*%
D17*
%TO.C,C11*%
X114500000Y-64500000D03*
X114500000Y-62425000D03*
%TD*%
%TO.C,C21*%
X107000000Y-65887500D03*
X107000000Y-63812500D03*
%TD*%
D19*
%TO.C,Y1*%
X121925000Y-61200000D03*
X124125000Y-61200000D03*
X124125000Y-59500000D03*
X121925000Y-59500000D03*
%TD*%
D10*
%TO.C,C17*%
X121925000Y-64000000D03*
X124000000Y-64000000D03*
%TD*%
D20*
%TO.C,R7*%
X131839931Y-75054212D03*
X133664931Y-75054212D03*
%TD*%
D12*
%TO.C,J1*%
X124380000Y-96500000D03*
D13*
X126920000Y-96500000D03*
X129460000Y-96500000D03*
X132000000Y-96500000D03*
%TD*%
D17*
%TO.C,C18*%
X109500000Y-65887500D03*
X109500000Y-63812500D03*
%TD*%
%TO.C,C8*%
X100007500Y-77000000D03*
X100007500Y-74925000D03*
%TD*%
D10*
%TO.C,C4*%
X132627431Y-80054212D03*
X134702431Y-80054212D03*
%TD*%
D14*
%TO.C,C5*%
X135637500Y-72850000D03*
X135637500Y-74925000D03*
%TD*%
D12*
%TO.C,J7*%
X110960000Y-101000000D03*
D13*
X113500000Y-101000000D03*
X116040000Y-101000000D03*
X118580000Y-101000000D03*
%TD*%
D20*
%TO.C,R1*%
X122675000Y-77000000D03*
X124500000Y-77000000D03*
%TD*%
D17*
%TO.C,C9*%
X102527500Y-77075000D03*
X102527500Y-75000000D03*
%TD*%
D14*
%TO.C,C22*%
X102507500Y-70500000D03*
X102507500Y-72575000D03*
%TD*%
D12*
%TO.C,J9*%
X174990000Y-90500000D03*
D13*
X177530000Y-90500000D03*
X174990000Y-93040000D03*
X177530000Y-93040000D03*
X174990000Y-95580000D03*
X177530000Y-95580000D03*
%TD*%
D21*
%TO.C,U1*%
X118250000Y-68825000D03*
X117750000Y-68825000D03*
X117250000Y-68825000D03*
X116750000Y-68825000D03*
X116250000Y-68825000D03*
X115750000Y-68825000D03*
X115250000Y-68825000D03*
X114750000Y-68825000D03*
X114250000Y-68825000D03*
X113750000Y-68825000D03*
X113250000Y-68825000D03*
X112750000Y-68825000D03*
X112250000Y-68825000D03*
X111750000Y-68825000D03*
X111250000Y-68825000D03*
X110750000Y-68825000D03*
D22*
X108825000Y-70750000D03*
X108825000Y-71250000D03*
X108825000Y-71750000D03*
X108825000Y-72250000D03*
X108825000Y-72750000D03*
X108825000Y-73250000D03*
X108825000Y-73750000D03*
X108825000Y-74250000D03*
X108825000Y-74750000D03*
X108825000Y-75250000D03*
X108825000Y-75750000D03*
X108825000Y-76250000D03*
X108825000Y-76750000D03*
X108825000Y-77250000D03*
X108825000Y-77750000D03*
X108825000Y-78250000D03*
D21*
X110750000Y-80175000D03*
X111250000Y-80175000D03*
X111750000Y-80175000D03*
X112250000Y-80175000D03*
X112750000Y-80175000D03*
X113250000Y-80175000D03*
X113750000Y-80175000D03*
X114250000Y-80175000D03*
X114750000Y-80175000D03*
X115250000Y-80175000D03*
X115750000Y-80175000D03*
X116250000Y-80175000D03*
X116750000Y-80175000D03*
X117250000Y-80175000D03*
X117750000Y-80175000D03*
X118250000Y-80175000D03*
D22*
X120175000Y-78250000D03*
X120175000Y-77750000D03*
X120175000Y-77250000D03*
X120175000Y-76750000D03*
X120175000Y-76250000D03*
X120175000Y-75750000D03*
X120175000Y-75250000D03*
X120175000Y-74750000D03*
X120175000Y-74250000D03*
X120175000Y-73750000D03*
X120175000Y-73250000D03*
X120175000Y-72750000D03*
X120175000Y-72250000D03*
X120175000Y-71750000D03*
X120175000Y-71250000D03*
X120175000Y-70750000D03*
%TD*%
D10*
%TO.C,C3*%
X132627431Y-77554212D03*
X134702431Y-77554212D03*
%TD*%
D23*
%TO.C,U3*%
X139037500Y-66037500D03*
X139037500Y-63747500D03*
X139037500Y-61457500D03*
D24*
X132347500Y-63747500D03*
%TD*%
D17*
%TO.C,C13*%
X105007500Y-77037500D03*
X105007500Y-74962500D03*
%TD*%
D12*
%TO.C,J5*%
X128596377Y-83903618D03*
D13*
X128596377Y-81363618D03*
X128596377Y-78823618D03*
X128596377Y-76283618D03*
X128596377Y-73743618D03*
X128596377Y-71203618D03*
X128596377Y-68663618D03*
X128596377Y-66123618D03*
%TD*%
D25*
%TO.C,R6*%
X142000000Y-66578141D03*
X142000000Y-64753141D03*
%TD*%
D26*
%TO.C,D1*%
X124500000Y-82000000D03*
X122450000Y-82000000D03*
%TD*%
D27*
%TO.C,R2*%
X124500000Y-79500000D03*
X122675000Y-79500000D03*
%TD*%
D12*
%TO.C,J6*%
X136847500Y-53247500D03*
D13*
X139387500Y-53247500D03*
%TD*%
D28*
%TO.C,FB1*%
X112000000Y-63700000D03*
X112000000Y-66000000D03*
%TD*%
D12*
%TO.C,J3*%
X121380000Y-37500000D03*
D13*
X123920000Y-37500000D03*
X126460000Y-37500000D03*
X129000000Y-37500000D03*
%TD*%
D16*
%TO.C,R3*%
X139637500Y-79325000D03*
X139637500Y-82425000D03*
%TD*%
D12*
%TO.C,J4*%
X129040000Y-112500000D03*
D13*
X126500000Y-112500000D03*
X123960000Y-112500000D03*
X121420000Y-112500000D03*
%TD*%
D29*
%TO.C,D2*%
X144500000Y-66525000D03*
X144500000Y-64475000D03*
%TD*%
D18*
%TO.C,SW2*%
X115918750Y-84906250D03*
X108118750Y-84906250D03*
%TD*%
D20*
%TO.C,R5*%
X131839931Y-72554212D03*
X133664931Y-72554212D03*
%TD*%
D15*
%TO.C,C1*%
X105000000Y-80000000D03*
X102925000Y-80000000D03*
%TD*%
%TO.C,C6*%
X139037500Y-58747500D03*
X136962500Y-58747500D03*
%TD*%
M02*
